<mxfile host="app.diagrams.net" modified="2023-09-27T10:31:50.982Z" agent="Mozilla/5.0 (Windows NT 10.0; Win64; x64) AppleWebKit/537.36 (KHTML, like Gecko) Chrome/117.0.0.0 Safari/537.36" etag="oCsiCQR_P5fnILqqt8LY" version="21.8.2" type="github">
  <diagram name="Page-1" id="QocvjojzJQhdpQmzkA6g">
    <mxGraphModel dx="988" dy="621" grid="1" gridSize="10" guides="1" tooltips="1" connect="1" arrows="1" fold="1" page="1" pageScale="1" pageWidth="827" pageHeight="1169" math="0" shadow="0">
      <root>
        <mxCell id="0" />
        <mxCell id="1" parent="0" />
        <mxCell id="eo5v1HKuKHCWtC8rtNga-58" style="edgeStyle=orthogonalEdgeStyle;rounded=0;orthogonalLoop=1;jettySize=auto;html=1;entryX=0;entryY=0.5;entryDx=0;entryDy=0;" edge="1" parent="1" source="eo5v1HKuKHCWtC8rtNga-1" target="eo5v1HKuKHCWtC8rtNga-56">
          <mxGeometry relative="1" as="geometry" />
        </mxCell>
        <mxCell id="eo5v1HKuKHCWtC8rtNga-1" value="Début" style="ellipse;whiteSpace=wrap;html=1;aspect=fixed;fillColor=#d5e8d4;strokeColor=#82b366;fontStyle=1;fontSize=18;" vertex="1" parent="1">
          <mxGeometry x="40" y="60" width="80" height="80" as="geometry" />
        </mxCell>
        <mxCell id="eo5v1HKuKHCWtC8rtNga-2" value="Fin" style="ellipse;whiteSpace=wrap;html=1;aspect=fixed;" vertex="1" parent="1">
          <mxGeometry x="250" y="1000" width="80" height="80" as="geometry" />
        </mxCell>
        <mxCell id="eo5v1HKuKHCWtC8rtNga-17" style="edgeStyle=orthogonalEdgeStyle;rounded=0;orthogonalLoop=1;jettySize=auto;html=1;exitX=0;exitY=0.5;exitDx=0;exitDy=0;entryX=0;entryY=0.5;entryDx=0;entryDy=0;" edge="1" parent="1" target="eo5v1HKuKHCWtC8rtNga-12">
          <mxGeometry relative="1" as="geometry">
            <mxPoint x="170" y="225" as="sourcePoint" />
          </mxGeometry>
        </mxCell>
        <mxCell id="eo5v1HKuKHCWtC8rtNga-38" style="edgeStyle=orthogonalEdgeStyle;rounded=0;orthogonalLoop=1;jettySize=auto;html=1;exitX=1;exitY=0.5;exitDx=0;exitDy=0;entryX=0.5;entryY=0;entryDx=0;entryDy=0;" edge="1" parent="1" target="eo5v1HKuKHCWtC8rtNga-34">
          <mxGeometry relative="1" as="geometry">
            <mxPoint x="390" y="225" as="sourcePoint" />
          </mxGeometry>
        </mxCell>
        <mxCell id="eo5v1HKuKHCWtC8rtNga-6" value="1d6: le plus gros score&lt;br&gt;commence" style="rhombus;whiteSpace=wrap;html=1;" vertex="1" parent="1">
          <mxGeometry x="170" y="170" width="220" height="110" as="geometry" />
        </mxCell>
        <mxCell id="eo5v1HKuKHCWtC8rtNga-9" value="&lt;h1&gt;Jeu de l&#39;oie&lt;/h1&gt;&lt;div&gt;Un joueur contre l&#39;ordi&lt;/div&gt;&lt;div&gt;But du jeu: le premier à atteindre la case 63 a gagné&lt;/div&gt;&lt;div&gt;Pour avancer: on lance deux dés&lt;/div&gt;&lt;div&gt;Règles lancé de dés&lt;/div&gt;&lt;div&gt;Règles des différentes cases sur&amp;nbsp; lesquelles on va tomber&lt;/div&gt;&lt;div&gt;&lt;br&gt;&lt;/div&gt;&lt;div&gt;&lt;br&gt;&lt;/div&gt;" style="text;html=1;strokeColor=none;fillColor=none;spacing=5;spacingTop=-20;whiteSpace=wrap;overflow=hidden;rounded=0;" vertex="1" parent="1">
          <mxGeometry x="600" y="30" width="190" height="180" as="geometry" />
        </mxCell>
        <mxCell id="eo5v1HKuKHCWtC8rtNga-30" style="edgeStyle=orthogonalEdgeStyle;rounded=0;orthogonalLoop=1;jettySize=auto;html=1;exitX=1;exitY=0.5;exitDx=0;exitDy=0;entryX=0;entryY=0.5;entryDx=0;entryDy=0;" edge="1" parent="1" source="eo5v1HKuKHCWtC8rtNga-12" target="eo5v1HKuKHCWtC8rtNga-18">
          <mxGeometry relative="1" as="geometry" />
        </mxCell>
        <mxCell id="eo5v1HKuKHCWtC8rtNga-12" value="2d6" style="rounded=0;whiteSpace=wrap;html=1;" vertex="1" parent="1">
          <mxGeometry x="30" y="335" width="120" height="60" as="geometry" />
        </mxCell>
        <mxCell id="eo5v1HKuKHCWtC8rtNga-32" style="edgeStyle=orthogonalEdgeStyle;rounded=0;orthogonalLoop=1;jettySize=auto;html=1;exitX=0;exitY=0.5;exitDx=0;exitDy=0;entryX=1;entryY=0.5;entryDx=0;entryDy=0;" edge="1" parent="1" source="eo5v1HKuKHCWtC8rtNga-13" target="eo5v1HKuKHCWtC8rtNga-19">
          <mxGeometry relative="1" as="geometry" />
        </mxCell>
        <mxCell id="eo5v1HKuKHCWtC8rtNga-13" value="clique sur les dés pour lancer 2d6" style="rounded=0;whiteSpace=wrap;html=1;" vertex="1" parent="1">
          <mxGeometry x="220" y="440" width="120" height="60" as="geometry" />
        </mxCell>
        <mxCell id="eo5v1HKuKHCWtC8rtNga-14" value="L&#39;ordi commence" style="text;html=1;align=center;verticalAlign=middle;resizable=0;points=[];autosize=1;strokeColor=none;fillColor=none;" vertex="1" parent="1">
          <mxGeometry x="10" y="200" width="110" height="30" as="geometry" />
        </mxCell>
        <mxCell id="eo5v1HKuKHCWtC8rtNga-15" value="L&#39;humain commence" style="text;html=1;align=center;verticalAlign=middle;resizable=0;points=[];autosize=1;strokeColor=none;fillColor=none;" vertex="1" parent="1">
          <mxGeometry x="414" y="200" width="130" height="30" as="geometry" />
        </mxCell>
        <mxCell id="eo5v1HKuKHCWtC8rtNga-31" style="edgeStyle=orthogonalEdgeStyle;rounded=0;orthogonalLoop=1;jettySize=auto;html=1;exitX=0.5;exitY=1;exitDx=0;exitDy=0;entryX=0.5;entryY=0;entryDx=0;entryDy=0;" edge="1" parent="1" source="eo5v1HKuKHCWtC8rtNga-18" target="eo5v1HKuKHCWtC8rtNga-13">
          <mxGeometry relative="1" as="geometry" />
        </mxCell>
        <mxCell id="eo5v1HKuKHCWtC8rtNga-18" value="Le pion de l&#39;ordi avance du nombre affiché par les 2d6" style="rounded=0;whiteSpace=wrap;html=1;" vertex="1" parent="1">
          <mxGeometry x="220" y="335" width="120" height="60" as="geometry" />
        </mxCell>
        <mxCell id="eo5v1HKuKHCWtC8rtNga-33" style="edgeStyle=orthogonalEdgeStyle;rounded=0;orthogonalLoop=1;jettySize=auto;html=1;entryX=0.5;entryY=1;entryDx=0;entryDy=0;" edge="1" parent="1" source="eo5v1HKuKHCWtC8rtNga-19" target="eo5v1HKuKHCWtC8rtNga-12">
          <mxGeometry relative="1" as="geometry" />
        </mxCell>
        <mxCell id="eo5v1HKuKHCWtC8rtNga-19" value="Le pion du joueur avance du nombre affiché par les 2d6" style="rounded=0;whiteSpace=wrap;html=1;" vertex="1" parent="1">
          <mxGeometry x="30" y="440" width="120" height="60" as="geometry" />
        </mxCell>
        <mxCell id="eo5v1HKuKHCWtC8rtNga-27" style="edgeStyle=orthogonalEdgeStyle;rounded=0;orthogonalLoop=1;jettySize=auto;html=1;exitX=1;exitY=0.5;exitDx=0;exitDy=0;entryX=0.5;entryY=0;entryDx=0;entryDy=0;" edge="1" parent="1" source="eo5v1HKuKHCWtC8rtNga-23" target="eo5v1HKuKHCWtC8rtNga-26">
          <mxGeometry relative="1" as="geometry" />
        </mxCell>
        <mxCell id="eo5v1HKuKHCWtC8rtNga-46" style="edgeStyle=orthogonalEdgeStyle;rounded=0;orthogonalLoop=1;jettySize=auto;html=1;exitX=0;exitY=0.5;exitDx=0;exitDy=0;entryX=0.5;entryY=0;entryDx=0;entryDy=0;" edge="1" parent="1" source="eo5v1HKuKHCWtC8rtNga-23" target="eo5v1HKuKHCWtC8rtNga-25">
          <mxGeometry relative="1" as="geometry" />
        </mxCell>
        <mxCell id="eo5v1HKuKHCWtC8rtNga-23" value="Arrivée à la case 63" style="rhombus;whiteSpace=wrap;html=1;" vertex="1" parent="1">
          <mxGeometry x="200" y="805" width="180" height="85" as="geometry" />
        </mxCell>
        <mxCell id="eo5v1HKuKHCWtC8rtNga-48" value="" style="edgeStyle=orthogonalEdgeStyle;rounded=0;orthogonalLoop=1;jettySize=auto;html=1;" edge="1" parent="1" source="eo5v1HKuKHCWtC8rtNga-25" target="eo5v1HKuKHCWtC8rtNga-47">
          <mxGeometry relative="1" as="geometry" />
        </mxCell>
        <mxCell id="eo5v1HKuKHCWtC8rtNga-25" value="Le joueur a perdu" style="rounded=0;whiteSpace=wrap;html=1;" vertex="1" parent="1">
          <mxGeometry x="40" y="870" width="120" height="60" as="geometry" />
        </mxCell>
        <mxCell id="eo5v1HKuKHCWtC8rtNga-51" value="" style="edgeStyle=orthogonalEdgeStyle;rounded=0;orthogonalLoop=1;jettySize=auto;html=1;" edge="1" parent="1" source="eo5v1HKuKHCWtC8rtNga-26" target="eo5v1HKuKHCWtC8rtNga-50">
          <mxGeometry relative="1" as="geometry" />
        </mxCell>
        <mxCell id="eo5v1HKuKHCWtC8rtNga-26" value="Le joueur a gagné" style="rounded=0;whiteSpace=wrap;html=1;" vertex="1" parent="1">
          <mxGeometry x="420" y="870" width="120" height="60" as="geometry" />
        </mxCell>
        <mxCell id="eo5v1HKuKHCWtC8rtNga-39" style="edgeStyle=orthogonalEdgeStyle;rounded=0;orthogonalLoop=1;jettySize=auto;html=1;exitX=1;exitY=0.5;exitDx=0;exitDy=0;entryX=0;entryY=0.5;entryDx=0;entryDy=0;" edge="1" parent="1" source="eo5v1HKuKHCWtC8rtNga-34" target="eo5v1HKuKHCWtC8rtNga-35">
          <mxGeometry relative="1" as="geometry" />
        </mxCell>
        <mxCell id="eo5v1HKuKHCWtC8rtNga-34" value="clique sur les dés pour lancer 2d6" style="rounded=0;whiteSpace=wrap;html=1;" vertex="1" parent="1">
          <mxGeometry x="480" y="440" width="120" height="60" as="geometry" />
        </mxCell>
        <mxCell id="eo5v1HKuKHCWtC8rtNga-40" style="edgeStyle=orthogonalEdgeStyle;rounded=0;orthogonalLoop=1;jettySize=auto;html=1;exitX=0.5;exitY=1;exitDx=0;exitDy=0;entryX=0.5;entryY=0;entryDx=0;entryDy=0;" edge="1" parent="1" source="eo5v1HKuKHCWtC8rtNga-35" target="eo5v1HKuKHCWtC8rtNga-37">
          <mxGeometry relative="1" as="geometry" />
        </mxCell>
        <mxCell id="eo5v1HKuKHCWtC8rtNga-35" value="Le pion du joueur avance du nombre affiché par les 2d6" style="rounded=0;whiteSpace=wrap;html=1;" vertex="1" parent="1">
          <mxGeometry x="640" y="440" width="120" height="60" as="geometry" />
        </mxCell>
        <mxCell id="eo5v1HKuKHCWtC8rtNga-42" style="edgeStyle=orthogonalEdgeStyle;rounded=0;orthogonalLoop=1;jettySize=auto;html=1;exitX=0.5;exitY=0;exitDx=0;exitDy=0;entryX=0.5;entryY=1;entryDx=0;entryDy=0;" edge="1" parent="1" source="eo5v1HKuKHCWtC8rtNga-36" target="eo5v1HKuKHCWtC8rtNga-34">
          <mxGeometry relative="1" as="geometry" />
        </mxCell>
        <mxCell id="eo5v1HKuKHCWtC8rtNga-36" value="Le pion de l&#39;ordi avance du nombre affiché par les 2d6" style="rounded=0;whiteSpace=wrap;html=1;" vertex="1" parent="1">
          <mxGeometry x="480" y="550" width="120" height="60" as="geometry" />
        </mxCell>
        <mxCell id="eo5v1HKuKHCWtC8rtNga-41" style="edgeStyle=orthogonalEdgeStyle;rounded=0;orthogonalLoop=1;jettySize=auto;html=1;exitX=0;exitY=0.5;exitDx=0;exitDy=0;entryX=1;entryY=0.5;entryDx=0;entryDy=0;" edge="1" parent="1" source="eo5v1HKuKHCWtC8rtNga-37" target="eo5v1HKuKHCWtC8rtNga-36">
          <mxGeometry relative="1" as="geometry" />
        </mxCell>
        <mxCell id="eo5v1HKuKHCWtC8rtNga-37" value="&#xa;&lt;span style=&quot;color: rgb(0, 0, 0); font-family: Helvetica; font-size: 12px; font-style: normal; font-variant-ligatures: normal; font-variant-caps: normal; font-weight: 400; letter-spacing: normal; orphans: 2; text-align: center; text-indent: 0px; text-transform: none; widows: 2; word-spacing: 0px; -webkit-text-stroke-width: 0px; background-color: rgb(251, 251, 251); text-decoration-thickness: initial; text-decoration-style: initial; text-decoration-color: initial; float: none; display: inline !important;&quot;&gt;2d6&lt;/span&gt;&#xa;&#xa;" style="rounded=0;whiteSpace=wrap;html=1;" vertex="1" parent="1">
          <mxGeometry x="640" y="550" width="120" height="60" as="geometry" />
        </mxCell>
        <mxCell id="eo5v1HKuKHCWtC8rtNga-44" value="Ordi en premier" style="text;html=1;align=center;verticalAlign=middle;resizable=0;points=[];autosize=1;strokeColor=none;fillColor=none;" vertex="1" parent="1">
          <mxGeometry x="100" y="810" width="110" height="30" as="geometry" />
        </mxCell>
        <mxCell id="eo5v1HKuKHCWtC8rtNga-45" value="Joueur en premier" style="text;html=1;align=center;verticalAlign=middle;resizable=0;points=[];autosize=1;strokeColor=none;fillColor=none;" vertex="1" parent="1">
          <mxGeometry x="374" y="810" width="120" height="30" as="geometry" />
        </mxCell>
        <mxCell id="eo5v1HKuKHCWtC8rtNga-49" value="" style="edgeStyle=orthogonalEdgeStyle;rounded=0;orthogonalLoop=1;jettySize=auto;html=1;" edge="1" parent="1" source="eo5v1HKuKHCWtC8rtNga-47" target="eo5v1HKuKHCWtC8rtNga-2">
          <mxGeometry relative="1" as="geometry" />
        </mxCell>
        <mxCell id="eo5v1HKuKHCWtC8rtNga-47" value="Image de fin loose" style="whiteSpace=wrap;html=1;rounded=0;" vertex="1" parent="1">
          <mxGeometry x="40" y="1010" width="120" height="60" as="geometry" />
        </mxCell>
        <mxCell id="eo5v1HKuKHCWtC8rtNga-52" value="" style="edgeStyle=orthogonalEdgeStyle;rounded=0;orthogonalLoop=1;jettySize=auto;html=1;" edge="1" parent="1" source="eo5v1HKuKHCWtC8rtNga-50" target="eo5v1HKuKHCWtC8rtNga-2">
          <mxGeometry relative="1" as="geometry" />
        </mxCell>
        <mxCell id="eo5v1HKuKHCWtC8rtNga-50" value="Image de fin win" style="whiteSpace=wrap;html=1;rounded=0;" vertex="1" parent="1">
          <mxGeometry x="420" y="1010" width="120" height="60" as="geometry" />
        </mxCell>
        <mxCell id="eo5v1HKuKHCWtC8rtNga-54" style="edgeStyle=orthogonalEdgeStyle;rounded=0;orthogonalLoop=1;jettySize=auto;html=1;exitX=0.5;exitY=1;exitDx=0;exitDy=0;entryX=0.5;entryY=0;entryDx=0;entryDy=0;" edge="1" parent="1" source="eo5v1HKuKHCWtC8rtNga-53" target="eo5v1HKuKHCWtC8rtNga-23">
          <mxGeometry relative="1" as="geometry" />
        </mxCell>
        <mxCell id="eo5v1HKuKHCWtC8rtNga-53" value="LANCER DE DÉS&amp;nbsp;&lt;br&gt;SUCCESSIFS" style="rounded=0;whiteSpace=wrap;html=1;" vertex="1" parent="1">
          <mxGeometry x="230" y="680" width="120" height="60" as="geometry" />
        </mxCell>
        <mxCell id="eo5v1HKuKHCWtC8rtNga-55" value="&lt;h1&gt;&lt;span style=&quot;background-color: initial;&quot;&gt;Lancés de dés&lt;/span&gt;&lt;/h1&gt;&lt;h1 style=&quot;line-height: 50%;&quot;&gt;&lt;span style=&quot;font-weight: 400; font-size: 12px;&quot;&gt;&lt;font style=&quot;font-size: 12px;&quot;&gt;On détermine qui de l&#39;ordi ou du joueur lance les dés en premier, puis les dés sont lancés successivement jusqu&#39;à ce que l&#39;ordi ou le joueur arrive sur la case 63&lt;/font&gt;&lt;/span&gt;&lt;/h1&gt;&lt;div style=&quot;&quot;&gt;&lt;span style=&quot;font-weight: 400;&quot;&gt;&lt;br&gt;&lt;/span&gt;&lt;/div&gt;" style="text;html=1;strokeColor=none;fillColor=none;spacing=5;spacingTop=-20;whiteSpace=wrap;overflow=hidden;rounded=0;" vertex="1" parent="1">
          <mxGeometry x="370" y="40" width="190" height="150" as="geometry" />
        </mxCell>
        <mxCell id="eo5v1HKuKHCWtC8rtNga-57" style="edgeStyle=orthogonalEdgeStyle;rounded=0;orthogonalLoop=1;jettySize=auto;html=1;entryX=0.5;entryY=0;entryDx=0;entryDy=0;" edge="1" parent="1" source="eo5v1HKuKHCWtC8rtNga-56" target="eo5v1HKuKHCWtC8rtNga-6">
          <mxGeometry relative="1" as="geometry" />
        </mxCell>
        <mxCell id="eo5v1HKuKHCWtC8rtNga-56" value="LANCER DE DÉS SUCCESSIFS" style="rounded=0;whiteSpace=wrap;html=1;fillColor=#fff2cc;strokeColor=#d6b656;fontStyle=1" vertex="1" parent="1">
          <mxGeometry x="220" y="70" width="120" height="60" as="geometry" />
        </mxCell>
        <mxCell id="eo5v1HKuKHCWtC8rtNga-59" value="&lt;h1&gt;La Victoire&lt;/h1&gt;&lt;div&gt;La partie s&#39;arrête quand l&#39;ordi ou le joueur arrive sur la case 63&lt;/div&gt;&lt;div&gt;&lt;br&gt;&lt;/div&gt;" style="text;html=1;strokeColor=none;fillColor=none;spacing=5;spacingTop=-20;whiteSpace=wrap;overflow=hidden;rounded=0;" vertex="1" parent="1">
          <mxGeometry x="380" y="680" width="190" height="120" as="geometry" />
        </mxCell>
      </root>
    </mxGraphModel>
  </diagram>
</mxfile>
